<?xml version="1.0" standalone="no"?>
<!DOCTYPE svg PUBLIC "-//W3C//DTD SVG 20010904//EN"
 "http://www.w3.org/TR/2001/REC-SVG-20010904/DTD/svg10.dtd">
<svg version="1.0" xmlns="http://www.w3.org/2000/svg"
 width="50.000000pt" height="50.000000pt" viewBox="0 0 50.000000 50.000000"
 preserveAspectRatio="xMidYMid meet">
<metadata>
Created by potrace 1.16, written by Peter Selinger 2001-2019
</metadata>
<g transform="translate(0.000000,50.000000) scale(0.002441,-0.002441)"
fill="#000000" stroke="none">
<path d="M0 10240 l0 -10240 10240 0 10240 0 0 10240 0 10240 -10240 0 -10240
0 0 -10240z m8030 8348 c66 -16 162 -63 219 -108 l51 -40 46 35 c64 49 109 71
195 95 89 24 216 26 299 5 52 -13 65 -13 122 0 81 19 208 19 283 0 171 -44
327 -168 399 -318 85 -177 81 -383 -12 -562 -15 -27 -34 -67 -44 -87 l-17 -38
234 0 235 0 -34 44 c-133 175 -155 440 -53 641 54 108 162 212 272 265 113 54
165 61 473 67 298 6 362 0 454 -39 l46 -20 79 29 78 28 275 0 275 0 70 -29
c39 -16 81 -29 95 -29 14 0 57 13 95 29 l70 29 250 0 c250 0 250 0 325 -28 41
-16 82 -29 90 -29 8 0 47 12 85 28 69 27 74 27 315 30 283 4 328 -3 451 -67
137 -71 247 -207 296 -365 15 -51 18 -95 18 -320 l0 -262 425 -5 c462 -6 488
-8 670 -68 163 -54 265 -113 420 -245 352 -297 585 -818 667 -1494 22 -185 25
-845 5 -1040 -28 -266 -87 -552 -155 -755 l-34 -100 34 -155 c18 -85 67 -312
108 -505 41 -192 84 -390 95 -440 17 -79 108 -519 185 -899 14 -71 46 -189 71
-262 54 -160 62 -227 59 -449 -4 -191 -15 -247 -70 -362 -158 -322 -551 -447
-885 -280 -37 18 -192 119 -346 224 -153 105 -326 219 -384 253 -129 77 -221
150 -290 230 -37 41 -60 60 -76 60 -31 0 -30 -5 6 -47 34 -38 82 -128 100
-188 7 -22 16 -92 20 -155 6 -83 15 -136 34 -189 22 -62 26 -91 26 -181 0 -70
-5 -122 -15 -150 -14 -40 -14 -47 6 -109 32 -99 30 -269 -3 -372 -21 -62 -24
-86 -17 -125 27 -163 -20 -346 -123 -475 -25 -32 -46 -73 -55 -107 -18 -69
-60 -154 -108 -216 -25 -32 -42 -72 -55 -122 -26 -101 -88 -216 -160 -297 -33
-38 -60 -74 -60 -81 0 -8 -18 -49 -40 -93 -41 -83 -134 -194 -203 -244 -21
-15 -55 -54 -76 -86 -48 -74 -135 -152 -216 -193 -36 -18 -72 -42 -82 -53 -28
-31 -124 -102 -168 -124 -22 -12 -64 -28 -93 -36 -35 -11 -71 -32 -108 -65
-30 -27 -76 -60 -102 -73 -26 -13 -78 -47 -117 -76 -38 -29 -88 -61 -111 -70
l-41 -17 -7 -126 c-3 -69 -11 -211 -16 -315 -18 -359 -59 -1320 -70 -1660 -6
-187 -15 -452 -20 -590 -6 -196 -11 -260 -25 -298 -23 -65 -103 -150 -173
-184 l-57 -28 -336 3 -336 3 -6 -38 c-3 -21 -22 -132 -42 -247 l-36 -209 49
-51 c90 -94 136 -165 184 -285 86 -218 110 -569 53 -793 -58 -227 -224 -403
-414 -438 -75 -14 -5078 -14 -5152 0 -113 22 -208 96 -274 214 -59 107 -77
183 -83 348 -12 361 83 674 257 855 99 102 191 167 302 212 l56 23 28 127 c57
258 150 558 269 867 36 94 66 174 66 177 0 15 -396 289 -473 327 -59 30 -131
105 -160 168 -18 38 -22 65 -22 142 1 82 12 146 88 485 141 624 262 1147 342
1474 41 167 75 309 74 315 0 6 -27 24 -59 39 -76 36 -149 94 -200 159 -23 28
-61 64 -85 80 -79 53 -186 183 -209 256 -3 9 -31 44 -62 77 -31 33 -73 89 -94
125 -35 60 -80 181 -80 217 0 9 -17 39 -37 67 -67 93 -122 245 -123 335 0 21
-18 72 -46 127 -30 61 -49 115 -56 161 -7 44 -26 99 -54 158 -75 151 -91 301
-50 455 10 39 12 68 6 100 -24 119 -6 274 42 379 17 38 20 63 19 143 -3 125
13 201 60 296 22 42 39 90 39 107 0 17 7 57 15 88 18 70 18 67 2 67 -7 0 -31
-18 -52 -41 -62 -64 -151 -130 -265 -198 -58 -35 -231 -150 -385 -256 -312
-214 -374 -251 -490 -291 -69 -23 -96 -27 -195 -27 -99 0 -126 4 -195 27 -156
53 -270 141 -349 269 -80 130 -105 237 -105 462 0 180 12 262 57 388 l37 102
3 1034 c1 650 -1 1050 -7 1080 -6 25 -25 87 -43 136 l-32 90 -1 230 c0 247 5
281 60 420 l26 63 -3 769 -3 768 -35 95 -35 95 0 250 c0 249 0 250 28 330 46
130 91 201 191 300 73 73 108 99 176 133 163 80 167 80 771 83 464 2 541 0
589 -14 50 -14 61 -14 115 0 44 11 142 16 366 20 l307 6 11 38 c9 28 9 56 2
97 -29 167 -21 348 20 471 30 88 109 202 181 260 139 112 278 151 544 151 132
0 237 -16 323 -49 l54 -20 65 31 c115 54 267 68 402 36z"/>
<path d="M7800 18419 c-68 -13 -120 -37 -178 -81 -48 -36 -55 -38 -70 -25 -32
28 -122 67 -189 83 -82 20 -358 14 -438 -9 -149 -42 -259 -149 -301 -292 -25
-84 -25 -284 -1 -381 18 -70 18 -72 -3 -133 -11 -35 -24 -92 -27 -127 l-6 -64
-316 0 c-325 0 -457 -9 -531 -35 -39 -14 -47 -13 -107 5 -62 19 -93 20 -577
20 -552 0 -566 -1 -679 -55 -124 -58 -239 -187 -288 -323 -23 -63 -24 -79 -24
-287 l1 -220 34 -95 35 -95 3 -799 3 -800 -42 -110 -42 -111 -4 -195 c-3 -214
5 -268 55 -370 l27 -55 3 -1060 c2 -713 -1 -1080 -8 -1121 -5 -34 -27 -111
-47 -170 -35 -107 -36 -113 -39 -284 -3 -203 8 -279 57 -370 47 -88 116 -155
204 -197 145 -68 286 -65 435 10 36 18 195 122 355 232 159 110 329 223 376
251 135 80 179 113 255 191 51 53 78 73 96 73 40 0 147 37 218 75 97 52 359
185 365 185 3 0 -14 -24 -38 -53 -45 -56 -81 -129 -92 -189 -4 -21 -11 -38
-15 -38 -4 0 -30 -20 -58 -45 -93 -84 -142 -190 -142 -311 0 -44 -5 -65 -16
-75 -9 -7 -30 -40 -47 -73 -26 -52 -31 -75 -35 -152 -3 -55 0 -106 7 -127 11
-32 9 -40 -18 -89 -59 -104 -77 -244 -46 -360 13 -53 13 -59 -7 -114 -17 -45
-22 -81 -22 -154 0 -107 20 -169 78 -250 29 -40 34 -56 38 -121 5 -82 31 -152
78 -211 26 -32 30 -45 30 -100 0 -64 16 -135 44 -199 13 -32 77 -125 95 -139
4 -3 12 -36 18 -74 17 -101 69 -200 143 -270 44 -42 67 -74 81 -111 28 -75 83
-140 166 -197 40 -27 73 -52 73 -57 0 -16 93 -112 129 -135 20 -13 57 -31 83
-40 35 -14 58 -33 92 -77 l46 -60 -49 -197 c-130 -519 -393 -1666 -467 -2031
-29 -145 -11 -193 97 -251 111 -60 576 -390 585 -415 3 -7 -18 -67 -46 -134
-165 -395 -288 -786 -351 -1118 l-23 -122 -71 -22 c-117 -35 -202 -86 -291
-175 -68 -67 -89 -96 -127 -175 -70 -146 -107 -327 -107 -528 0 -225 60 -370
175 -422 38 -18 145 -19 2576 -19 2860 0 2585 -8 2685 82 95 88 136 184 154
367 21 211 -13 437 -91 598 -42 87 -131 194 -195 234 -26 16 -34 27 -34 49 0
38 85 540 109 649 11 46 23 86 28 90 4 4 175 3 380 -2 416 -9 418 -9 469 58
26 35 29 46 31 134 25 844 59 1728 83 2199 6 105 15 281 20 390 6 108 13 238
17 289 l6 92 37 6 c55 9 152 58 196 98 22 19 67 48 101 66 34 17 87 55 117 85
45 43 66 57 106 65 78 17 140 51 205 113 36 35 88 71 130 92 83 39 161 114
194 183 15 33 32 53 53 62 45 20 140 118 175 181 17 30 38 80 48 110 13 42 33
71 81 122 76 79 121 167 137 269 10 64 16 77 54 117 53 55 102 154 110 224 5
43 13 59 50 97 95 99 136 233 114 369 -17 98 -17 93 15 182 38 105 38 224 0
327 l-27 72 22 63 c17 51 20 80 17 158 -3 81 -8 104 -34 156 -27 54 -30 66
-24 118 14 132 -24 246 -116 345 -46 50 -54 64 -54 98 0 52 -32 144 -71 205
-17 27 -65 79 -105 117 -64 58 -88 91 -68 91 3 0 82 -40 177 -89 188 -98 246
-118 353 -128 70 -6 71 -6 97 -48 46 -72 174 -186 282 -249 92 -55 258 -165
560 -371 66 -46 144 -94 172 -109 279 -140 595 -10 679 279 20 70 27 304 12
424 -5 40 -26 121 -47 180 -38 107 -50 156 -165 721 -98 474 -210 1004 -295
1389 -23 101 -41 193 -41 203 0 10 11 51 25 91 130 368 185 744 185 1257 0
480 -46 805 -165 1165 -90 273 -221 493 -394 665 -167 167 -309 250 -519 304
-109 29 -243 36 -689 36 l-443 0 6 318 c6 278 5 325 -10 382 -33 127 -108 220
-224 278 -72 35 -81 37 -171 36 -53 0 -114 -1 -136 -3 -22 -1 -80 1 -130 4
-78 6 -99 4 -155 -15 -36 -12 -87 -37 -113 -56 l-48 -34 -32 24 c-18 14 -60
38 -92 53 -58 27 -65 28 -260 31 -232 4 -288 -6 -386 -69 -33 -22 -62 -39 -65
-39 -3 0 -15 9 -27 21 -12 11 -51 35 -87 52 l-64 32 -233 3 c-261 4 -296 -2
-393 -60 l-55 -33 -55 33 c-94 56 -130 62 -374 62 -281 0 -380 -11 -468 -52
-83 -38 -167 -122 -206 -205 -24 -52 -27 -69 -27 -173 0 -105 2 -120 27 -173
35 -75 78 -128 134 -169 l44 -31 0 -111 0 -111 -482 3 c-265 1 -484 5 -486 7
-6 6 50 145 130 322 72 160 94 244 83 318 -36 234 -218 386 -448 373 -55 -3
-98 -12 -131 -26 -31 -14 -53 -19 -60 -13 -6 5 -38 17 -70 26 -134 39 -296 1
-400 -95 -51 -47 -101 -121 -112 -164 -6 -27 -8 -26 -39 40 -58 126 -177 218
-310 243 -67 12 -91 12 -155 0z m113 -399 c12 -17 13 -78 9 -359 l-5 -340 38
-7 c20 -3 75 -4 120 -2 45 3 88 2 95 -2 6 -4 10 -20 8 -36 -4 -36 -24 -41
-171 -43 -103 -1 -142 7 -159 32 -3 6 -5 180 -2 386 2 207 4 379 4 384 0 16
50 6 63 -13z m-596 -10 c33 -21 45 -58 44 -135 0 -54 -4 -73 -18 -82 -20 -15
-23 -16 -43 -3 -11 7 -15 28 -15 82 l0 73 -110 0 -110 0 1 -61 c1 -96 16 -115
178 -229 31 -22 69 -58 84 -79 26 -37 27 -46 30 -178 3 -99 0 -143 -8 -153
-10 -12 -44 -15 -174 -15 -88 0 -167 4 -175 9 -16 10 -32 152 -22 201 14 71
79 66 73 -6 -1 -22 0 -58 3 -81 l6 -43 109 0 c66 0 111 4 115 11 4 6 4 51 0
101 -7 81 -10 93 -38 125 -17 19 -58 53 -91 76 -89 60 -143 118 -157 169 -14
53 -14 197 0 211 28 28 276 34 318 7z m1414 -2 c23 -45 191 -298 198 -298 4 0
24 42 46 93 88 212 117 251 153 215 18 -18 15 -32 -27 -121 -21 -45 -89 -204
-151 -352 -61 -149 -120 -281 -129 -294 -15 -19 -24 -22 -46 -17 -37 9 -33 25
49 211 36 82 66 155 66 161 0 6 -50 87 -110 180 -61 93 -113 179 -117 192 -11
47 46 72 68 30z m2229 2 c8 -14 8 -26 0 -40 -10 -18 -21 -20 -115 -20 l-105 0
0 -348 c0 -257 -3 -351 -12 -360 -31 -31 -76 6 -62 50 3 11 3 165 -1 341 l-8
320 -91 -6 c-106 -6 -116 -3 -116 28 0 47 19 50 322 53 168 2 178 1 188 -18z
m838 8 c17 -17 15 -36 -7 -47 -10 -6 -76 -14 -145 -17 l-126 -7 0 -119 0 -120
108 2 c59 1 113 2 120 1 16 -1 16 -46 -1 -59 -7 -6 -61 -14 -119 -18 -97 -6
-107 -9 -112 -28 -3 -12 -6 -83 -6 -159 l0 -139 138 3 c75 2 143 0 150 -4 16
-11 15 -42 -2 -57 -22 -18 -305 -27 -336 -10 l-23 12 7 381 c5 280 10 383 19
389 21 13 321 10 335 -4z m842 -8 c8 -14 8 -26 0 -40 -10 -18 -21 -20 -134
-20 l-124 0 -6 -32 c-10 -58 -18 -481 -9 -543 l8 -60 139 -5 c118 -4 141 -8
150 -22 8 -13 8 -23 0 -35 -10 -16 -31 -18 -168 -21 -153 -2 -157 -2 -180 21
-35 35 -40 101 -32 398 7 268 18 348 54 368 9 6 79 11 154 11 127 0 138 -1
148 -20z m578 8 c8 -8 12 -56 12 -150 l0 -138 100 0 100 0 0 139 c0 109 3 141
15 151 20 16 54 3 60 -23 3 -12 2 -186 -2 -386 -7 -331 -10 -365 -25 -375 -13
-8 -23 -8 -35 0 -16 10 -18 33 -21 210 l-2 199 -94 -3 -93 -3 -7 -46 c-3 -25
-6 -112 -6 -192 0 -152 -5 -171 -42 -171 -9 0 -22 8 -27 19 -13 23 -2 738 11
764 10 20 39 22 56 5z m-2040 -1041 c78 -80 196 -127 322 -127 l80 0 0 -81 c0
-44 7 -108 16 -142 l17 -62 -107 -685 -107 -685 -39 -56 c-72 -102 -83 -144
-88 -320 -3 -119 0 -170 12 -216 17 -69 24 -18 -93 -738 -54 -331 -63 -376
-90 -425 -17 -31 -37 -82 -46 -115 -17 -68 -20 -253 -5 -336 22 -122 124 -265
245 -345 87 -58 169 -84 444 -138 l266 -53 19 -34 c10 -19 42 -72 70 -119 48
-80 51 -90 57 -172 5 -67 12 -97 33 -134 l27 -48 -101 -397 c-55 -218 -100
-400 -100 -404 0 -17 -45 34 -243 279 -116 142 -224 267 -241 278 -28 18 -43
19 -166 14 -146 -6 -134 -5 -1285 -75 -429 -26 -782 -46 -784 -45 -2 2 15 79
38 172 l42 168 49 42 c133 115 147 331 31 464 -61 69 -130 101 -228 106 -112
6 -169 -15 -244 -88 -31 -30 -59 -62 -61 -70 -10 -29 -16 -4 -19 84 l-4 89 95
-2 c52 -1 142 5 200 13 102 15 283 33 560 57 74 6 168 20 208 30 179 45 319
163 383 320 18 44 23 79 27 195 5 160 -5 221 -48 313 l-30 63 0 634 c0 545 2
638 15 657 38 59 57 141 60 267 5 147 -10 230 -55 319 -30 59 -31 66 -28 172
l3 110 105 3 c216 7 395 105 489 269 47 82 61 153 61 307 l0 136 -70 204 c-38
113 -70 210 -70 217 0 6 17 17 38 24 87 28 196 119 237 198 l17 34 25 -44 c13
-24 41 -61 61 -82z m1818 20 c75 -39 101 -105 68 -169 -9 -17 -18 -62 -21
-102 -4 -60 12 -162 105 -676 60 -333 131 -729 157 -880 26 -151 51 -291 56
-311 5 -20 34 -74 64 -119 62 -93 67 -121 35 -191 -11 -24 -20 -64 -20 -89 1
-25 36 -253 79 -507 43 -255 77 -463 74 -463 -2 0 -21 11 -43 25 -22 14 -64
36 -93 48 l-52 24 -33 194 c-19 107 -51 295 -73 418 -44 253 -49 353 -20 417
l18 41 -29 39 c-53 70 -87 150 -103 241 -9 48 -25 140 -36 203 -11 63 -49 273
-84 465 -36 193 -67 364 -70 380 -3 17 -30 165 -61 330 -59 321 -68 430 -41
516 l14 47 -361 4 c-198 3 -362 4 -364 2 -2 -1 4 -24 13 -51 38 -112 37 -121
-70 -803 -20 -124 -63 -403 -96 -620 -56 -366 -63 -400 -95 -468 -19 -39 -45
-79 -58 -87 l-23 -15 25 -51 c14 -27 27 -71 29 -97 4 -40 -35 -311 -102 -717
-8 -49 -33 -205 -55 -345 -42 -267 -57 -327 -96 -399 -13 -24 -23 -45 -22 -47
4 -3 443 -85 469 -87 10 -1 19 -4 19 -6 0 -16 -57 -111 -66 -111 -7 0 -54 9
-105 19 -52 11 -150 29 -218 41 -185 33 -259 72 -282 150 -11 36 -10 43 13 77
50 76 67 156 162 753 52 327 98 616 101 642 6 40 3 57 -24 114 -42 89 -40 107
14 160 32 32 49 59 59 97 9 28 63 358 121 732 58 374 113 725 122 780 19 125
14 228 -15 284 -12 23 -22 51 -22 62 0 54 52 103 125 119 16 3 221 5 455 5
374 -1 429 -3 456 -18z m-4704 -15 c58 -29 67 -43 109 -169 18 -57 36 -103 39
-103 3 0 13 46 23 102 20 117 31 139 90 170 l42 23 830 0 830 0 41 -22 c22
-12 46 -28 52 -35 19 -23 212 -576 212 -608 0 -30 -47 -77 -95 -96 -50 -19
-82 -17 -300 14 -77 11 -168 23 -202 27 l-63 6 0 -428 c0 -464 5 -510 54 -581
36 -52 35 -98 -4 -147 -17 -21 -33 -48 -36 -59 -2 -12 -3 -383 -2 -826 l3
-805 38 -79 c20 -43 37 -86 37 -96 0 -29 -46 -76 -90 -94 -43 -17 -112 -25
-420 -51 -102 -9 -239 -23 -305 -30 -213 -26 -269 -17 -295 46 -12 29 -12 36
10 73 50 87 68 133 78 196 6 42 7 341 3 845 -8 850 -7 837 -66 907 -22 26 -26
39 -22 70 3 21 17 52 31 68 52 63 56 97 56 546 0 227 -3 415 -7 417 -10 6
-170 -24 -280 -52 -54 -14 -115 -21 -175 -22 -51 0 -109 -1 -128 -2 -19 0 -73
5 -120 12 -47 7 -199 16 -338 20 l-252 6 0 -182 c0 -101 3 -183 8 -183 4 0 84
7 177 15 288 25 347 19 392 -39 25 -32 183 -512 183 -556 0 -47 -60 -104 -130
-124 -30 -8 -183 -32 -340 -53 l-285 -39 -3 -801 -2 -801 -86 -26 c-47 -15
-87 -26 -89 -24 -6 7 -10 1757 -4 1763 4 3 172 26 374 50 202 24 369 46 372
49 3 3 -4 38 -17 78 -27 89 -131 402 -134 405 -1 1 -134 -9 -296 -22 -162 -13
-298 -20 -303 -16 -4 4 -6 149 -5 322 l3 314 270 -1 c241 -1 484 -13 586 -30
l35 -6 -93 278 -93 279 -168 -2 c-92 -2 -395 -5 -674 -9 l-507 -6 20 -39 c10
-21 28 -77 40 -124 19 -82 20 -112 17 -812 l-3 -728 -23 -65 c-13 -36 -32 -77
-43 -93 -20 -27 -20 -28 -1 -55 29 -41 50 -117 62 -217 6 -54 10 -438 10 -958
0 -951 0 -946 -60 -1089 -15 -38 -27 -68 -25 -68 2 0 38 13 79 29 41 16 77 26
80 23 3 -3 6 -35 6 -71 l0 -66 -83 -29 c-45 -16 -105 -34 -134 -40 -28 -6 -59
-19 -70 -28 -23 -21 -291 -154 -508 -253 -93 -42 -225 -106 -292 -141 -138
-72 -170 -78 -210 -38 -25 25 -26 28 -17 107 13 118 8 221 -14 307 -11 41 -41
156 -67 255 -26 99 -69 266 -95 370 l-48 190 -1 -495 c-1 -535 2 -567 54 -670
33 -64 32 -104 -5 -176 -41 -83 -104 -142 -218 -204 -53 -29 -161 -98 -240
-153 -235 -162 -462 -306 -504 -319 -54 -16 -88 -2 -112 45 -17 36 -17 42 -3
95 8 31 25 82 36 113 51 140 51 146 51 1398 0 1291 0 1293 -61 1419 -27 54
-30 70 -24 110 4 25 18 68 31 94 54 107 54 99 54 1083 0 557 -4 937 -10 980
-6 38 -24 108 -40 156 -34 98 -37 134 -15 186 21 50 42 72 90 94 37 17 75 19
508 19 440 0 470 -1 505 -19 46 -23 67 -46 87 -94 13 -31 13 -48 4 -109 -18
-114 -7 -190 75 -531 42 -175 76 -325 76 -333 0 -8 4 -14 9 -14 6 0 8 118 5
298 -6 412 -8 433 -45 536 -47 131 -29 200 65 246 43 20 54 21 511 20 256 -1
469 1 473 4 3 4 326 5 716 4 l711 -3 47 -23z m6363 18 c211 -6 260 -11 311
-28 87 -29 140 -57 209 -112 177 -141 302 -336 396 -620 167 -508 181 -1187
35 -1752 -43 -166 -56 -203 -114 -342 l-45 -109 27 -121 c60 -266 191 -864
246 -1131 16 -77 54 -259 85 -405 30 -146 78 -377 106 -515 52 -262 75 -350
115 -452 28 -72 31 -148 8 -182 -15 -20 -23 -23 -69 -19 -47 4 -71 17 -241
130 -205 135 -443 285 -539 339 -112 62 -208 186 -207 269 0 19 3 80 7 136 6
78 4 120 -9 185 -38 189 -231 997 -240 1007 -3 3 -20 1 -38 -4 l-33 -10 -3
-419 c-3 -455 0 -485 55 -662 27 -89 26 -120 -7 -153 -42 -42 -78 -30 -371
118 -151 76 -320 158 -376 181 -57 24 -103 47 -103 52 0 15 50 109 58 109 10
0 230 -100 441 -202 101 -48 186 -87 187 -85 2 1 -6 29 -17 61 -41 126 -48
204 -54 677 -5 334 -4 458 4 463 6 4 43 16 82 27 86 24 157 58 225 110 l52 38
32 -132 c88 -368 180 -760 251 -1077 53 -234 64 -348 46 -465 l-7 -51 65 -32
c36 -17 192 -113 347 -212 154 -99 282 -179 284 -177 2 2 -8 37 -22 78 -30 86
-71 258 -109 449 -14 74 -40 196 -55 270 -16 74 -59 275 -95 445 -69 323 -218
999 -279 1263 -20 84 -36 162 -36 173 0 11 11 41 24 67 36 71 91 223 131 362
123 429 138 1033 35 1466 -98 416 -273 687 -515 801 l-80 37 -325 7 c-179 4
-409 8 -512 8 l-187 1 25 -62 c53 -136 57 -217 51 -988 -6 -763 -6 -762 -61
-835 l-26 -34 21 -40 c45 -88 57 -192 58 -531 0 -173 4 -528 7 -787 4 -260 5
-473 1 -473 -3 0 -45 60 -94 133 l-88 132 -6 680 c-6 738 -6 737 -64 849 -31
62 -31 84 0 130 65 96 60 26 60 851 0 693 -1 755 -18 814 -10 35 -27 79 -38
99 -49 92 8 181 129 202 62 10 551 11 867 0z m-17 -846 c70 -5 90 -11 130 -38
113 -75 184 -278 219 -623 15 -159 15 -181 1 -285 -35 -246 -133 -453 -298
-632 -47 -50 -198 -176 -212 -176 -10 0 -11 1754 -1 1764 4 4 23 5 43 2 19 -3
72 -8 118 -12z m-2050 -1046 c43 -233 74 -429 69 -434 -7 -7 -159 16 -170 25
-4 4 -1 52 7 107 8 54 25 170 37 257 13 86 26 157 30 157 4 0 16 -51 27 -112z
m-4023 -1686 c-51 -77 -68 -146 -72 -292 -2 -74 -7 -138 -11 -141 -7 -7 -124
-57 -156 -66 -16 -5 -18 -3 -12 13 5 10 26 71 48 134 45 133 45 170 -5 227
-34 39 -128 89 -229 122 l-67 22 -6 52 c-3 29 -5 286 -3 572 l3 520 85 12
c221 32 327 60 410 111 l35 22 3 -635 2 -635 -25 -38z m4028 734 c93 -19 170
-36 172 -38 1 -2 24 -119 49 -262 42 -231 45 -260 32 -275 -31 -34 -46 -90
-46 -169 0 -44 -3 -100 -6 -126 l-7 -47 -23 22 c-26 25 -22 8 -100 439 -31
173 -58 318 -61 323 -2 4 -11 7 -18 7 -17 0 -20 -11 -40 -145 -8 -55 -26 -172
-40 -260 -13 -88 -25 -163 -25 -167 0 -3 -20 -16 -43 -27 -24 -12 -72 -47
-106 -77 -34 -31 -63 -55 -65 -53 -2 2 12 99 30 214 48 293 92 571 100 628 3
26 11 47 18 47 6 0 87 -16 179 -34z m670 -772 c123 -32 248 -114 305 -200 39
-58 34 -69 -8 -20 -49 55 -173 133 -248 156 -60 17 -172 32 -172 22 0 -2 12
-19 26 -38 31 -39 27 -41 -26 -14 -50 26 -53 25 -46 -5 8 -31 -1 -32 -31 -3
l-23 21 0 -61 c0 -48 -3 -62 -15 -62 -12 0 -15 16 -15 84 0 46 3 98 7 116 l6
33 89 -7 c50 -3 117 -13 151 -22z m-5327 -154 c32 -6 92 -22 132 -37 70 -24
73 -27 67 -52 -8 -34 -25 -51 -25 -25 -1 16 -4 15 -25 -11 -14 -16 -25 -25
-26 -20 0 6 -1 26 -2 45 -2 34 -3 35 -62 48 -92 19 -266 10 -340 -18 -166 -62
-276 -223 -292 -425 -3 -38 -9 -77 -14 -85 -15 -26 -10 161 6 228 60 255 300
400 581 352z m4700 -208 c-12 -12 -23 -5 -77 47 l-64 61 -71 -73 c-79 -81
-131 -157 -173 -251 -52 -117 -52 -117 -45 -61 15 123 81 248 198 372 l79 84
84 -83 c71 -70 81 -84 69 -96z m442 -203 c12 -5 22 -13 22 -18 0 -13 -65 -68
-89 -76 -22 -7 -131 22 -131 34 0 4 9 16 20 26 11 10 22 26 25 36 6 16 14 18
68 12 34 -3 72 -10 85 -14z m-4482 -123 c19 -41 42 -105 51 -143 20 -84 24
-276 6 -294 -10 -10 -13 2 -13 62 0 94 -31 232 -67 301 -24 47 -28 50 -31 28
-1 -14 -5 -32 -8 -40 -4 -13 -6 -13 -14 0 -6 8 -10 25 -10 38 0 29 -13 28 -30
-3 -18 -34 -33 -32 -28 5 4 27 3 29 -21 23 -14 -3 -34 -10 -45 -15 -17 -9 -35
2 -36 22 0 7 181 88 198 89 7 1 29 -32 48 -73z m298 -583 c9 -25 23 -54 31
-63 13 -14 8 -41 -42 -240 -31 -124 -60 -230 -65 -236 -4 -6 -60 -14 -124 -18
-139 -8 -175 -21 -210 -82 -31 -53 -149 -345 -239 -594 -70 -193 -306 -898
-370 -1104 l-37 -119 -34 39 c-18 21 -39 57 -45 79 -13 46 -44 110 -69 142
-10 13 -21 40 -25 60 -3 21 -22 67 -40 103 -37 72 -53 136 -64 255 -5 44 -13
92 -19 106 -14 36 -16 174 -3 234 7 28 9 66 6 86 -4 24 1 57 14 97 12 34 21
75 21 91 0 17 11 51 24 76 14 25 30 71 36 102 15 73 66 135 140 173 60 31 243
180 281 229 22 28 33 32 104 41 145 18 204 44 381 166 151 103 221 178 280
299 24 50 44 99 44 108 0 28 7 19 24 -30z m-1125 -248 c29 -31 32 -31 69 0 17
14 33 21 36 16 13 -20 21 -128 13 -168 -6 -32 -18 -50 -48 -73 l-39 -32 0 37
c0 47 -26 148 -51 197 -29 57 -21 66 20 23z m5291 -38 c0 -19 11 -55 24 -82
l25 -47 -37 -49 c-20 -27 -39 -49 -43 -49 -11 0 -29 85 -29 132 0 46 32 128
50 128 5 0 10 -15 10 -33z m-435 -207 c20 -44 113 -138 163 -164 28 -15 32
-21 32 -59 0 -61 16 -109 55 -167 29 -44 35 -61 35 -109 1 -31 8 -74 16 -96 9
-22 17 -74 19 -115 2 -41 8 -88 14 -103 8 -21 8 -40 0 -69 -5 -22 -10 -72 -9
-111 2 -77 -18 -189 -44 -250 -9 -20 -23 -65 -31 -100 -23 -102 -61 -197 -98
-246 -18 -25 -42 -66 -51 -90 -9 -24 -34 -64 -56 -88 -21 -24 -48 -65 -60 -91
-12 -26 -44 -70 -70 -98 -26 -28 -57 -69 -68 -91 -14 -26 -37 -50 -65 -67 -25
-14 -65 -48 -90 -76 -44 -49 -177 -129 -177 -106 0 6 14 132 31 280 l30 270
52 56 c84 90 152 238 178 384 6 40 9 118 7 189 -4 102 -10 134 -32 192 -15 39
-28 75 -29 80 -3 15 217 885 224 885 3 0 14 -18 24 -40z m-5112 -52 c34 -96
28 -155 -23 -200 -37 -34 -56 -35 -86 -7 l-23 22 34 40 c36 42 65 112 65 159
0 41 15 34 33 -14z m5663 -147 l38 -42 -45 -39 c-42 -36 -45 -37 -72 -23 -69
35 -83 117 -38 218 l23 50 28 -61 c15 -34 45 -80 66 -103z m-1796 40 c0 -17
-5 -33 -10 -36 -6 -4 -180 -13 -388 -20 -825 -31 -2238 -119 -2274 -142 -16
-9 -76 -149 -137 -318 -101 -277 -255 -757 -443 -1385 l-44 -145 -42 -9 c-23
-5 -45 -7 -47 -4 -3 2 6 38 19 79 14 41 47 148 76 239 193 620 515 1531 564
1594 9 12 81 19 361 36 762 45 1851 111 2045 124 113 7 231 14 263 15 57 1 57
1 57 -28z m-3973 -226 c6 -59 -8 -110 -34 -119 -9 -4 -30 5 -49 19 l-33 25 19
33 c10 17 24 52 30 77 7 25 14 51 16 59 9 29 45 -39 51 -94z m5813 38 c1 -21
9 -63 20 -93 11 -30 19 -58 20 -62 0 -12 -89 -58 -104 -52 -34 13 -39 102 -10
179 8 20 53 64 67 65 4 0 7 -17 7 -37z m-5890 -213 c15 -28 12 -107 -5 -139
-19 -37 -36 -43 -65 -21 -22 16 -22 20 -12 63 7 25 12 71 12 102 l0 56 30 -21
c17 -12 35 -30 40 -40z m5964 -149 c9 -24 14 -46 11 -51 -2 -4 -25 -15 -50
-25 -44 -16 -47 -16 -65 0 -27 24 -34 68 -20 125 10 43 18 54 54 75 l41 25 7
-53 c4 -28 14 -72 22 -96z m-2647 100 c93 -43 99 -166 11 -247 -49 -45 -82
-56 -127 -44 -110 29 -135 174 -46 263 47 47 100 56 162 28z m1178 -35 c28
-13 58 -32 67 -42 20 -23 51 -94 44 -101 -7 -8 -106 19 -106 29 0 4 -7 8 -15
8 -8 0 -21 13 -30 29 -20 40 -30 45 -105 51 l-65 6 45 22 c58 28 103 27 165
-2z m-2707 -13 c32 -20 62 -72 62 -108 0 -39 -31 -104 -61 -132 -13 -12 -42
-29 -63 -38 -36 -15 -42 -15 -82 0 -55 21 -84 65 -84 129 0 48 26 112 54 135
47 39 125 46 174 14z m-1826 -172 c22 -49 18 -99 -10 -123 -15 -13 -21 -13
-50 -2 -29 13 -32 17 -25 42 5 15 8 57 7 94 l-1 67 30 -17 c17 -10 38 -36 49
-61z m6011 -24 c-3 -20 3 -55 16 -92 12 -35 17 -61 11 -65 -5 -3 -37 -12 -71
-19 -58 -13 -63 -13 -76 5 -25 35 -26 62 -2 111 17 33 37 55 64 70 55 31 65
30 58 -10z m-1121 -153 c35 -100 19 -291 -33 -409 -45 -103 -122 -185 -173
-185 -16 0 -15 3 8 21 94 74 154 256 144 438 -6 91 9 194 27 188 5 -2 18 -26
27 -53z m1162 -81 c-7 -16 -14 -52 -14 -82 l0 -53 -31 6 c-17 3 -58 6 -90 6
-59 0 -59 0 -59 29 0 48 39 83 112 102 95 25 100 25 82 -8z m-38 -185 c-24
-60 -28 -90 -18 -140 5 -29 9 -54 9 -54 -6 -6 -194 42 -200 51 -13 17 1 76 28
116 l25 39 81 0 c61 0 79 -3 75 -12z m-64 -234 c15 -4 14 -9 -8 -42 -19 -27
-25 -47 -22 -74 2 -21 0 -38 -4 -38 -5 0 -43 10 -84 22 -59 17 -78 28 -85 45
-10 27 3 69 32 99 19 21 22 21 87 7 37 -7 75 -16 84 -19z m-2566 -99 l22 -60
-37 -7 c-20 -4 -62 -7 -93 -7 l-57 -1 -17 55 c-10 30 -21 52 -25 50 -3 -3 -10
-31 -14 -62 -9 -70 -12 -78 -32 -61 -11 9 -48 13 -111 13 l-96 0 -25 49 -25
49 -16 -46 c-19 -56 -21 -59 -62 -63 -44 -5 -50 1 -77 69 -13 31 -26 57 -30
57 -3 0 -18 -28 -32 -63 l-25 -62 -55 -7 c-30 -3 -86 -8 -125 -10 l-72 -4 -16
53 c-10 29 -19 53 -21 53 -3 0 -14 -18 -25 -40 -24 -47 -34 -45 -50 8 -7 20
-16 41 -20 45 -4 4 -20 -22 -36 -57 l-29 -65 -44 -1 c-26 0 -52 -7 -62 -16
-16 -15 -18 -13 -26 28 l-9 43 -31 -43 c-17 -24 -34 -38 -38 -32 -3 5 -23 10
-44 10 -38 0 -38 0 -55 60 -11 38 -21 57 -29 54 -7 -2 -30 -31 -52 -64 -37
-55 -43 -60 -79 -60 -25 0 -43 -6 -51 -17 -12 -17 -14 -17 -35 2 -21 19 -23
19 -35 2 -15 -21 -31 -22 -39 -2 -3 9 -18 15 -40 15 -33 0 -34 1 -41 50 -8 59
-16 56 -62 -16 -27 -43 -29 -44 -80 -44 -29 0 -53 4 -53 8 0 11 59 100 71 107
22 14 974 71 1344 81 127 4 232 8 234 10 3 3 102 3 220 2 l216 -3 21 -60z
m-3298 0 c36 -30 54 -72 50 -115 -3 -29 -8 -34 -48 -46 -25 -8 -46 -14 -46
-14 -1 0 -4 24 -6 53 -2 30 -14 72 -26 95 -15 29 -18 42 -9 46 28 11 57 4 85
-19z m2708 -115 c60 0 64 2 70 25 8 31 17 32 37 2 14 -22 19 -23 110 -19 l95
4 31 -33 30 -34 2 25 c1 14 3 30 4 35 2 6 3 19 4 30 2 20 2 20 16 1 13 -18 26
-19 119 -17 l104 3 11 -52 c6 -28 11 -55 11 -60 0 -6 -149 -10 -387 -10 -356
0 -825 -11 -1098 -25 -198 -11 -568 -36 -660 -45 -49 -5 -91 -7 -93 -5 -3 2 8
29 24 60 28 54 30 55 74 56 25 1 56 2 70 3 16 1 34 13 49 34 30 40 41 41 41 2
0 -28 2 -30 38 -30 33 0 39 -4 49 -31 l12 -31 25 28 24 29 26 -24 c14 -14 27
-23 29 -20 2 2 8 16 15 32 10 23 17 27 52 27 37 0 43 4 72 45 18 25 35 45 40
45 4 0 13 -19 19 -43 10 -42 11 -43 52 -43 40 1 42 0 47 -34 l5 -35 29 43 c30
44 46 43 46 -5 0 -31 9 -29 39 8 20 23 36 31 66 34 22 1 43 3 47 4 4 1 17 19
28 42 24 46 28 45 51 -13 l15 -40 25 36 c13 20 27 36 30 36 4 0 14 -28 24 -62
l17 -62 18 34 18 35 114 5 113 5 24 50 24 50 20 -47 19 -48 64 0z m3072 23
c28 -7 28 -14 -4 -44 -35 -32 -51 -65 -59 -122 -4 -26 -10 -47 -14 -45 -3 2
-41 20 -83 41 -73 36 -78 40 -78 70 0 41 29 85 75 113 35 21 39 21 88 7 29 -8
62 -17 75 -20z m-5689 -118 c32 -16 58 -63 63 -114 3 -32 1 -34 -40 -46 -47
-14 -47 -14 -56 36 -4 21 -18 54 -32 74 -26 39 -24 49 11 58 11 3 21 5 23 6 2
0 16 -6 31 -14z m5519 -101 l76 -37 -27 -19 c-31 -22 -61 -75 -72 -126 l-7
-32 -26 19 c-15 10 -55 33 -90 50 -58 29 -62 33 -56 59 16 66 65 122 107 122
11 0 54 -16 95 -36z m-5396 -121 c32 -33 48 -73 48 -116 0 -27 -7 -36 -40 -54
-21 -13 -41 -23 -43 -23 -2 0 -7 29 -9 65 -4 50 -12 73 -32 100 -20 25 -23 36
-14 39 7 3 20 7 28 9 28 10 36 7 62 -20z m5249 -79 c38 -20 69 -40 69 -44 0
-4 -11 -11 -24 -14 -34 -8 -104 -92 -112 -132 -3 -19 -11 -34 -16 -34 -5 0
-34 21 -64 48 -50 44 -53 49 -48 82 9 48 29 84 60 109 37 29 55 27 135 -15z
m-5090 -145 c29 -21 59 -72 59 -102 0 -12 -59 -47 -80 -47 -4 0 -14 16 -20 35
-6 19 -31 52 -56 74 l-44 39 22 16 c29 20 78 14 119 -15z m4916 -70 c54 -47
62 -59 38 -59 -9 0 -44 -27 -77 -60 l-59 -60 -47 35 c-26 19 -56 40 -66 48
-19 13 -19 14 0 53 24 50 75 84 125 84 30 0 48 -9 86 -41z m-4751 -108 c42
-19 84 -63 84 -87 0 -9 -12 -14 -32 -14 -18 0 -49 -3 -70 -6 -34 -6 -38 -4
-53 27 -10 19 -26 44 -37 56 -19 20 -19 21 -1 32 27 15 63 13 109 -8z m3432
-38 l-3 -28 -375 -11 c-370 -11 -484 -15 -995 -34 -354 -14 -894 -38 -1100
-50 -93 -6 -215 -13 -270 -16 -379 -21 -924 -69 -936 -82 -6 -6 -77 -265 -275
-1002 -253 -942 -490 -1912 -540 -2217 -16 -99 -17 -101 -45 -105 -16 -3 -31
-3 -33 -1 -2 2 2 32 10 66 369 1674 594 2579 785 3155 69 205 52 187 184 197
44 3 195 14 335 25 939 71 2146 123 3003 128 l258 2 -3 -27z m1118 -19 l55
-37 -49 -16 c-65 -22 -95 -43 -128 -88 -15 -21 -31 -41 -34 -46 -4 -4 -28 20
-54 53 l-47 61 19 32 c25 43 86 77 140 77 34 0 56 -8 98 -36z m-252 -160 c47
-57 50 -74 15 -74 -72 0 -201 -107 -235 -195 -9 -25 -20 -43 -24 -40 -4 3 -13
47 -19 99 -11 88 -11 99 7 139 23 51 73 93 134 112 67 21 74 19 122 -41z
m-2508 -68 c-4 -17 -9 -54 -13 -84 l-6 -54 -86 7 c-139 11 -135 8 -127 72 10
89 9 88 131 88 l107 0 -6 -29z m-579 2 c-3 -13 -9 -44 -12 -70 -7 -45 -9 -48
-44 -54 -20 -3 -69 -14 -110 -24 l-74 -19 6 69 c9 107 10 109 125 113 53 1
101 4 106 5 4 1 6 -8 3 -20z m289 -5 c-3 -16 -8 -46 -11 -68 l-6 -40 -111 0
-110 0 6 52 c10 87 4 83 128 83 l110 0 -6 -27z m624 24 c0 -1 -9 -20 -20 -42
-11 -22 -20 -49 -20 -61 0 -18 -9 -23 -57 -32 -32 -6 -87 -14 -122 -18 l-64
-6 6 63 c10 105 1 99 148 99 71 0 129 -1 129 -3z m-1204 -39 c-3 -13 -9 -53
-12 -90 -8 -77 -2 -74 -139 -84 l-88 -7 6 83 c3 45 9 86 14 90 4 5 46 13 93
18 137 15 133 15 126 -10z m-300 -60 c-3 -29 -6 -68 -6 -86 l0 -33 -112 3
-113 3 3 35 c2 19 10 49 17 66 12 30 17 32 106 47 52 8 98 15 103 16 5 1 6
-23 2 -51z m3362 -92 c5 -6 12 -30 16 -53 l6 -43 -35 0 c-46 0 -123 -27 -163
-57 -18 -14 -36 -23 -39 -20 -9 10 26 112 49 140 38 47 140 67 166 33z m-286
-227 c-4 -63 -8 -75 -33 -98 -16 -14 -42 -51 -58 -80 -29 -55 -30 -55 -37 -27
l-7 29 -13 -24 c-18 -33 -17 -7 3 65 12 44 18 54 23 40 6 -15 11 -9 29 30 18
41 85 136 95 136 2 0 1 -32 -2 -71z m-2407 -90 c-289 -29 -501 -86 -717 -194
-103 -51 -174 -95 -231 -141 -27 -22 -27 -23 -7 -34 29 -16 24 -30 -11 -30
l-30 0 97 -142 c54 -79 115 -170 137 -203 22 -33 47 -64 55 -69 12 -7 12 -10
1 -16 -9 -6 -65 57 -191 216 -98 123 -178 228 -178 232 0 11 82 72 175 130
277 171 573 260 860 260 l120 -1 -80 -8z m240 -279 c106 -21 275 -70 304 -89
14 -9 -41 -77 -249 -312 -23 -26 -28 -28 -70 -19 -25 5 -101 12 -169 16 l-123
7 6 46 c4 25 14 78 24 116 l17 70 38 3 c27 2 37 -1 37 -11 0 -20 38 -29 48
-12 8 15 56 8 174 -26 49 -14 66 -23 62 -34 -3 -7 3 -18 14 -24 18 -9 24 -3
60 56 37 61 39 68 24 79 -24 19 -27 18 -47 -19 l-18 -33 -81 23 c-44 13 -100
27 -123 30 -29 4 -43 11 -46 24 -6 22 -47 26 -47 5 0 -11 -9 -13 -37 -9 -21 3
-41 10 -44 16 -4 5 -9 5 -13 -2 -4 -6 -27 -11 -51 -11 l-44 0 -3 43 c-2 35 -7
43 -25 45 -21 3 -23 -1 -23 -41 l0 -44 -52 -7 c-29 -4 -69 -9 -89 -13 -30 -4
-37 -2 -41 15 -8 28 -48 18 -48 -12 0 -17 -14 -26 -77 -48 -42 -15 -77 -27
-78 -25 -33 59 -40 65 -62 53 l-23 -12 38 -61 c33 -54 40 -60 57 -50 11 5 23
14 26 19 10 16 138 58 144 48 6 -10 36 -2 45 11 10 14 154 33 158 20 5 -14 39
-15 47 -1 3 6 19 10 35 10 l29 0 -73 -117 -73 -118 -114 -7 c-63 -4 -122 -9
-131 -12 -25 -6 -236 252 -217 265 125 84 293 143 479 169 97 13 300 4 425
-20z m554 -1046 c25 -5 31 -11 31 -32 0 -25 0 -25 -67 -18 -264 24 -796 16
-1208 -19 -244 -21 -758 -80 -793 -91 -9 -3 -5 -12 12 -31 14 -15 24 -29 22
-31 -2 -2 -21 1 -43 7 -61 17 -61 17 -51 -40 5 -28 7 -53 4 -56 -2 -3 -17 14
-32 37 l-28 43 -12 -30 c-17 -40 -68 -240 -108 -418 -24 -107 -38 -151 -48
-153 -13 -3 -12 17 8 135 39 224 126 563 145 563 4 0 68 9 141 19 292 43 767
91 1098 110 165 10 885 13 929 5z m-79 -1823 c0 -5 -16 -44 -36 -87 -294 -643
-462 -1178 -509 -1626 l-6 -58 -61 0 -60 0 6 58 c46 387 260 1035 523 1585
l66 137 39 0 c21 0 38 -4 38 -9z m-2270 -96 c0 -3 -24 -58 -54 -123 -242 -530
-412 -1090 -452 -1487 -4 -38 -12 -73 -18 -77 -12 -9 -90 -11 -98 -3 -6 7 17
153 48 295 78 362 260 878 456 1293 50 105 52 107 85 107 18 0 33 -2 33 -5z
m-600 -1774 c-8 -5 -31 -12 -50 -16 -19 -4 -73 -26 -120 -49 -149 -73 -251
-195 -309 -373 -57 -176 -59 -308 -6 -419 14 -28 25 -54 25 -57 0 -9 -63 -9
-85 -1 -44 17 -81 168 -70 289 8 90 39 222 67 288 78 186 200 294 373 332 68
15 199 19 175 6z m2350 5 c0 -3 -26 -12 -57 -21 -99 -29 -210 -93 -279 -162
-171 -171 -250 -525 -153 -691 26 -45 24 -52 -10 -52 -58 0 -78 15 -101 77
-29 75 -31 241 -5 353 64 274 205 438 418 484 58 13 187 21 187 12z"/>
<path d="M11053 16781 l-33 -27 46 -135 47 -134 4 -170 c6 -199 -5 -264 -67
-390 -91 -189 -290 -335 -515 -377 -51 -10 -65 -16 -61 -28 2 -8 19 -55 37
-105 32 -88 33 -94 33 -260 1 -180 -8 -236 -50 -334 l-24 -53 0 -588 0 -588
25 -55 c39 -85 55 -177 55 -327 0 -160 -16 -244 -64 -343 -66 -137 -177 -249
-318 -319 -99 -49 -194 -74 -357 -93 -74 -9 -136 -17 -138 -18 -1 -2 7 -31 17
-66 52 -165 7 -361 -110 -485 -57 -61 -72 -96 -40 -96 27 0 1273 75 1678 101
367 24 391 14 599 -243 53 -65 98 -117 100 -114 3 2 26 89 52 193 l48 188 -19
50 c-11 27 -22 81 -25 120 -5 58 -13 82 -46 138 -24 41 -48 69 -61 72 -11 3
-110 23 -218 45 -320 64 -431 113 -579 260 -71 71 -94 101 -133 180 -66 134
-79 207 -73 405 4 140 8 169 31 234 14 41 35 89 45 107 15 25 40 159 97 511
73 456 77 481 66 546 -7 37 -12 134 -12 216 0 201 28 308 113 432 21 32 35
105 124 677 78 495 99 650 93 679 -5 21 -11 50 -15 66 -4 21 -11 27 -31 27
-37 0 -172 55 -232 95 -30 19 -54 35 -55 35 -1 -1 -17 -13 -34 -29z"/>
<path d="M9414 16882 l-752 -2 -16 -88 c-38 -210 -77 -465 -71 -470 3 -3 47 4
98 16 217 51 466 87 472 68 2 -6 6 -220 10 -476 4 -340 3 -480 -6 -520 -12
-57 -41 -123 -66 -152 -14 -15 -13 -20 5 -45 50 -71 55 -106 63 -478 4 -192 7
-557 8 -810 1 -513 -3 -551 -63 -659 l-34 -62 57 7 c59 9 446 44 594 55 48 3
87 9 87 12 0 4 -9 21 -20 39 -10 18 -27 58 -37 90 -17 54 -18 118 -18 863 0
749 1 808 18 851 10 26 26 54 37 64 19 17 19 18 1 44 -11 15 -29 55 -40 89
-20 59 -21 81 -21 582 l0 520 63 0 c102 -1 527 -48 575 -65 6 -2 12 -3 12 -1
0 4 -116 337 -156 450 -16 44 -33 80 -39 80 -5 1 -348 0 -761 -2z"/>
<path d="M6258 16853 c-199 -2 -328 -7 -328 -13 0 -5 9 -31 19 -58 51 -130 51
-120 51 -1303 0 -606 -2 -1100 -5 -1098 -21 22 -283 1080 -511 2064 -26 115
-36 286 -20 354 l8 34 -418 -8 c-231 -4 -420 -8 -422 -10 -2 -2 3 -18 11 -37
8 -19 25 -77 37 -129 22 -94 22 -98 24 -1039 l1 -945 -23 -84 c-13 -46 -32
-102 -44 -124 -19 -39 -19 -42 -3 -69 32 -55 55 -163 66 -308 6 -93 9 -536 7
-1240 -4 -1080 -4 -1096 -26 -1190 -12 -52 -31 -122 -42 -154 -11 -33 -19 -61
-17 -63 2 -2 137 82 299 186 163 104 323 203 356 220 33 17 64 35 67 41 4 6
-3 32 -15 57 -53 113 -52 86 -59 1531 -3 739 -3 1346 1 1348 8 5 10 0 72 -271
56 -244 360 -1469 391 -1580 13 -44 49 -177 81 -295 54 -202 58 -222 58 -330
1 -63 -2 -129 -6 -146 l-7 -31 62 33 c56 29 211 102 598 278 l126 58 -28 57
c-15 31 -33 83 -39 116 -8 43 -10 344 -8 1040 l3 980 32 66 33 67 -24 43 c-54
97 -56 135 -56 932 0 473 4 754 11 793 12 68 45 169 65 201 20 31 18 33 -18
31 -18 -2 -180 -4 -360 -5z"/>
<path d="M14660 15455 c-1 -297 -3 -550 -4 -562 -8 -71 53 38 102 182 55 161
64 289 37 502 -26 198 -64 332 -110 389 l-24 29 -1 -540z"/>
<path d="M8312 14442 l-84 -15 3 -418 c1 -230 5 -423 8 -428 9 -14 153 -81
162 -75 11 6 12 955 2 953 -5 -1 -45 -9 -91 -17z"/>
<path d="M8210 11393 c-14 -3 -43 -21 -66 -42 -85 -76 -189 -158 -252 -196
-64 -41 -65 -41 -93 -125 -43 -125 -71 -238 -73 -295 -1 -27 -6 -88 -10 -135
-7 -67 -5 -96 8 -139 9 -30 16 -73 16 -97 0 -75 47 -232 63 -213 3 2 42 117
87 254 107 322 287 818 357 983 3 6 1 11 -3 11 -5 -1 -20 -4 -34 -6z"/>
<path d="M12661 11183 c-63 -238 -97 -393 -90 -406 27 -47 49 -188 49 -310 0
-240 -65 -444 -197 -618 -29 -38 -53 -76 -53 -86 0 -25 50 30 85 95 16 29 43
69 61 90 17 21 39 56 48 77 10 22 34 67 55 100 21 33 48 89 59 125 11 36 35
110 52 165 27 83 34 122 40 235 7 134 -5 287 -30 370 -5 19 -10 47 -10 63 0
15 -13 52 -29 83 l-30 55 -10 -38z"/>
</g>
</svg>
